<?xml version="1.0" encoding="utf-8"?>
<!-- Generator: Adobe Illustrator 18.1.1, SVG Export Plug-In . SVG Version: 6.00 Build 0)  -->
<svg version="1.1" id="Layer_1" xmlns="http://www.w3.org/2000/svg" xmlns:xlink="http://www.w3.org/1999/xlink" x="0px" y="0px"
	 viewBox="0 0 321.5 17.7" enable-background="new 0 0 321.5 17.7" xml:space="preserve">
<g>
	<g>
		<g>
			<path fill="none" stroke="#ffffff" stroke-width="5" stroke-linecap="round" stroke-miterlimit="10" d="M27.6,10.2
				c-6.6-6.6-17.3-6.5-24,0.1"/>
			<path fill="none" stroke="#ffffff" stroke-width="5" stroke-miterlimit="10" d="M51.7,10.2c-6.6,6.6-17.4,6.6-24,0"/>
			<path fill="none" stroke="#ffffff" stroke-width="5" stroke-miterlimit="10" d="M75.7,10.1c-6.6-6.6-17.4-6.5-24,0.1"/>
			<path fill="none" stroke="#ffffff" stroke-width="5" stroke-miterlimit="10" d="M99.7,10.1c-6.6,6.6-17.4,6.6-24,0"/>
			<path fill="none" stroke="#ffffff" stroke-width="5" stroke-linecap="round" stroke-miterlimit="10" d="M124,9.8
				c-6.6-6.6-17.6-6.4-24.3,0.3"/>
		</g>
		<g>
			<path fill="none" stroke="#ffffff" stroke-width="5" stroke-miterlimit="10" d="M147.4,9.2c-6.7,6.6-17.4,6.6-24.1,0"/>
			<path fill="none" stroke="#ffffff" stroke-width="5" stroke-miterlimit="10" d="M171.5,9.1c-6.6-6.6-17.4-6.5-24.1,0.1"/>
			<path fill="none" stroke="#ffffff" stroke-width="5" stroke-miterlimit="10" d="M195.6,9.1c-6.7,6.6-17.4,6.6-24.1,0"/>
			<path fill="none" stroke="#ffffff" stroke-width="5" stroke-linecap="round" stroke-miterlimit="10" d="M220,8.8
				c-6.6-6.6-17.7-6.4-24.4,0.3"/>
		</g>
	</g>
	<g>
		<path fill="none" stroke="#ffffff" stroke-width="5" stroke-miterlimit="10" d="M244.5,9.2c-6.7,6.6-17.8,6.2-24.5-0.4"/>
		<path fill="none" stroke="#ffffff" stroke-width="5" stroke-miterlimit="10" d="M268.6,9.1c-6.6-6.6-17.7-6.3-24.3,0.3"/>
		<path fill="none" stroke="#ffffff" stroke-width="5" stroke-miterlimit="10" d="M292.7,9.1c-6.7,6.6-17.4,6.6-24.1,0"/>
		<path fill="none" stroke="#ffffff" stroke-width="5" stroke-linecap="round" stroke-miterlimit="10" d="M317,8.8
			c-6.6-6.6-17.7-6.4-24.3,0.3"/>
	</g>
</g>
</svg>
